<svg width="32" height="31" fill="none" xmlns="http://www.w3.org/2000/svg"><g clip-path="url(#clip0_3_2)" fill="#fff"><path d="M20.383 18.878l-2.269-2.113-8.329 7.781 10.598-5.668zm0-5.753L9.785 7.457l8.33 7.782 2.268-2.114zm3.321 3.945c.68-.502.68-1.635-.045-2.137l-2.223-1.199-2.48 2.268 2.48 2.268 2.268-1.2zM7.61 25l9.685-9.002L7.61 7.002V7c-.49.24-.819.675-.819 1.241V23.76c0 .566.329 1.002.82 1.241z"/></g><defs><clipPath id="clip0_3_2"><path fill="#fff" transform="translate(6 7)" d="M0 0h19v18H0z"/></clipPath></defs></svg>