<svg width="32" height="32" fill="none" xmlns="http://www.w3.org/2000/svg"><g clip-path="url(#clip0_501_3591)"><path d="M15.58 6.56c1.253-2.968 4.115-5.043 7.444-5.043 4.484 0 7.713 3.836 8.12 8.407 0 0 .218 1.135-.264 3.178-.657 2.782-2.2 5.255-4.282 7.141l-11.017 9.83-10.832-9.83c-2.082-1.886-3.626-4.36-4.282-7.141-.483-2.043-.264-3.178-.264-3.178.406-4.572 3.636-8.408 8.12-8.408 3.33 0 6.005 2.076 7.258 5.045z" fill="#fff"/></g><defs><clipPath id="clip0_501_3591"><path fill="#fff" transform="translate(.154 .275)" d="M0 0h31.04v31.04H0z"/></clipPath></defs></svg>