<svg width="153" height="49" fill="none" xmlns="http://www.w3.org/2000/svg"><g clip-path="url(#clip0_304_212866)"><path d="M25.053 48.938C11.592 48.938.686 37.98.686 24.53.686 11.083 11.592.062 25.053.062c13.462 0 24.43 10.958 24.43 24.407 0 13.448-10.968 24.469-24.43 24.469z" fill="#E21F1D"/><path fill-rule="evenodd" clip-rule="evenodd" d="M18.073 26.835c.062-.062 0-.187 0-.25-.81-1.68-1.433-3.424-1.807-5.291-.063-.187-.187-.25-.374-.25a11.028 11.028 0 01-7.23-1.618.19.19 0 00-.249 0c-.062.062-.124.124-.124.187 0 .186 2.492 8.156 2.68 8.654a.42.42 0 00.373.249c2.306-.062 4.55-.56 6.544-1.432.125-.062.187-.125.187-.25zm23.62-7.472c-.062-.062-.187 0-.25 0-2.118 1.37-4.673 1.93-7.229 1.62-.186 0-.311.061-.373.248a21.219 21.219 0 01-1.808 5.292.19.19 0 000 .25c.063.062.125.186.187.186 1.994.872 4.238 1.37 6.544 1.432.187 0 .311-.062.374-.249.25-.498 2.742-8.53 2.68-8.654l-.125-.125zm-19.818-1.867c2.555.31 3.677.373 6.419 0 .81-.125 8.04-1.37 5.484-3.487-2.181-1.743-4.674-3.113-7.416-3.86-.81-.25-1.62-.25-2.493 0-2.742.81-5.297 2.117-7.479 3.86-2.617 2.117 4.674 3.362 5.485 3.487zm11.28 13.76a9.893 9.893 0 00-9.598 7.409c0 .062 0 .186.063.249.062.062.124.124.187.124.436.062.81.062 1.246.062 2.618 0 5.048-.56 7.292-1.618 2.493-1.183 3.677-2.429 3.677-4.047 0-1.246-.935-2.18-2.867-2.18zm-9.099 2.988c-1.807-1.806-4.3-2.989-7.042-2.989-1.932 0-2.93.934-2.93 2.117 0 1.557 1.185 2.864 3.678 4.047 1.308.623 2.742 1.059 4.175 1.37.187.062.374-.062.374-.249.312-1.37.935-2.677 1.745-3.798.125-.187.125-.373 0-.498zm5.11-15.316c-.062-.063-.187-.063-.249-.063-.125.063-.187.125-.187.25a17.08 17.08 0 01-3.677 8.467 17.082 17.082 0 01-3.677-8.468c0-.124-.062-.186-.187-.249-.125-.062-.187 0-.25.063-.996.747-2.118 1.37-3.302 1.743-.125.062-.25.187-.187.373a21.29 21.29 0 007.416 12.266c.063.062.187.062.25.062.062 0 .186 0 .249-.062a21.289 21.289 0 007.416-12.266c.062-.186-.062-.31-.187-.373-1.309-.436-2.43-.996-3.428-1.743z" fill="#fff"/><path d="M60.577 19.986c.685.685 1.558 1.183 2.555 1.557.997.373 2.119.56 3.365.56.436 0 .873 0 1.309-.062.436-.063.872-.063 1.309-.187.436-.062.81-.187 1.184-.25.374-.124.748-.248.997-.373l-.25-4.67c-.373.25-.685.499-.997.686-.311.186-.685.31-.997.435-.311.125-.623.187-.934.25-.312.062-.624.062-.935.062a3.851 3.851 0 01-1.558-.312 2.883 2.883 0 01-1.122-.81c-.312-.31-.499-.746-.623-1.182a4.853 4.853 0 01-.187-1.37c0-.81.124-1.494.436-1.992.25-.498.685-.934 1.122-1.183a3.44 3.44 0 011.62-.374c.374 0 .748.063 1.184.125.436.124.873.249 1.371.498.499.249.997.498 1.558.872l.374-4.732c-.311-.187-.685-.312-1.06-.436a7.295 7.295 0 00-1.246-.311c-.436-.125-.934-.187-1.37-.25-.5-.062-.936-.062-1.434-.062-1.745 0-3.179.374-4.363 1.059a6.824 6.824 0 00-2.68 2.801c-.623 1.183-.872 2.553-.872 4.047 0 1.183.187 2.304.56 3.238.437.872.998 1.743 1.684 2.366zm14.396-8.966l2.867 6.6c-.312.747-.624 1.432-.873 2.117-.311.685-.56 1.37-.81 1.992h5.484c.312-.747.624-1.556.997-2.366.374-.871.686-1.618.998-2.366l1.932-4.731c.374-.81.685-1.744 1.121-2.678.374-.934.81-1.93 1.185-2.864h-5.61c-.124.436-.186.81-.311 1.183-.062.312-.187.685-.25.934-.062.311-.124.623-.249.872-.062.311-.187.622-.249.996l-.498 2.117h-.312l-.561-2.117c-.062-.374-.187-.685-.25-.934a4.584 4.584 0 00-.249-.872c-.062-.31-.124-.622-.249-.934-.062-.31-.187-.747-.311-1.182h-5.796c.374.809.685 1.556.997 2.241.374.623.685 1.307.997 1.992zm30.475-1.868v8.406h-2.617V6.787h-5.048v10.77h-2.618V6.788h-5.172v15.067h20.69V6.787h-5.172c-.063.747-.063 1.556-.063 2.365zM118.972 19.8c.436-.622.873-1.37 1.309-2.117l1.558-2.49h.312v6.537h5.048V6.662h-4.363c-.499.747-.935 1.494-1.309 2.117-.374.623-.81 1.307-1.246 1.93l-1.558 2.49h-.374V6.788h-4.924v15.067h4.301c.436-.747.81-1.37 1.246-2.055zM77.03 37.357l-.686-5.105c-.125-.934-.25-1.806-.312-2.615-.124-.81-.249-1.62-.311-2.49h-5.11c-.188.684-.437 1.307-.562 1.805-.187.498-.373 1.058-.56 1.618l-1.06 3.238h-.311l-1.185-3.238c-.187-.56-.374-1.058-.56-1.618-.187-.56-.437-1.121-.624-1.744h-5.297c-.125.81-.187 1.682-.312 2.49-.124.81-.187 1.682-.311 2.616l-.623 5.105c-.125.934-.188 1.744-.312 2.553-.125.81-.187 1.557-.312 2.304h4.737c.062-.747.187-1.432.249-2.117s.187-1.308.25-1.93l.31-2.49h.313l.872 2.677c.125.435.312.871.436 1.307.125.436.312.872.437 1.308.124.435.249.871.436 1.245h3.365c.125-.623.312-1.245.436-1.868.187-.623.312-1.308.499-1.992l.623-2.74h.312l.311 2.553c.063.622.187 1.245.25 1.93.062.685.187 1.37.249 2.117h4.923c-.124-.747-.187-1.557-.311-2.304 0-.872-.125-1.743-.25-2.615zm16.266-.311L91.8 31.878a81.799 81.799 0 01-.686-2.49c-.187-.748-.436-1.495-.685-2.304h-6.606c-.187.747-.437 1.494-.624 2.241-.187.747-.436 1.557-.748 2.553l-1.495 5.168c-.25.81-.499 1.618-.748 2.553-.25.871-.499 1.743-.748 2.552h5.173c.124-.685.311-1.432.436-2.179 0-.062.062-.187.062-.249h3.802c0 .062.062.187.062.249.125.747.312 1.494.437 2.18h5.36c-.25-.81-.5-1.62-.749-2.491-.249-.934-.498-1.744-.748-2.615zm-6.108-5.666l.935 4.483h-2.244l.935-4.483h.374zm15.456.124a3.451 3.451 0 011.62-.373c.374 0 .748.062 1.184.124.437.125.873.25 1.371.498.499.25.998.499 1.558.872l.374-4.732c-.311-.187-.685-.311-1.059-.436a7.292 7.292 0 00-1.247-.31c-.436-.125-.934-.188-1.371-.25-.498-.062-.934-.062-1.433-.062-1.745 0-3.178.373-4.363 1.058a6.824 6.824 0 00-2.68 2.802c-.623 1.183-.872 2.553-.872 4.047 0 1.183.187 2.304.561 3.238.374.934.935 1.805 1.62 2.428.686.685 1.558 1.183 2.556 1.556.997.374 2.118.56 3.365.56.436 0 .872 0 1.309-.062.436-.062.872-.062 1.308-.186.437-.063.811-.187 1.185-.25.373-.124.747-.248.997-.373l-.25-4.67c-.374.25-.685.499-.997.685-.311.187-.685.312-.997.436-.311.125-.623.187-.935.25-.311.062-.623.062-.935.062a3.855 3.855 0 01-1.558-.312c-.436-.187-.81-.436-1.121-.81-.312-.31-.499-.746-.624-1.182a4.874 4.874 0 01-.187-1.37c0-.81.125-1.494.437-1.992.311-.623.685-.997 1.184-1.246zm8.164.063h3.864V42.15h5.173V31.567h3.864v-4.483h-12.901v4.483zm21.875 6.537H131v-1.68h5.422v-3.612H131v-1.619h5.609v-4.047h-10.657v15.068h10.844v-4.047h-1.932c-.685-.063-1.433-.063-2.181-.063zm18.821-8.965a3.305 3.305 0 00-2.057-1.557c-.872-.311-1.994-.436-3.303-.436h-6.793v15.068h5.048V37.73h2.493c1.184 0 2.182-.25 2.992-.685a4.088 4.088 0 001.682-1.868c.374-.81.561-1.743.561-2.802.063-1.432-.187-2.49-.623-3.237zm-4.674 4.233c-.062.25-.187.374-.374.498a1.257 1.257 0 01-.686.187h-1.246v-3.05h1.371c.187 0 .312.062.499.124.124.062.249.187.374.311.124.125.187.311.249.498s.062.374.062.623c-.124.311-.187.56-.249.81z" fill="#fff"/></g><defs><clipPath id="clip0_304_212866"><path fill="#fff" d="M0 0h153v49H0z"/></clipPath></defs></svg>