<svg width="17" height="17" fill="none" xmlns="http://www.w3.org/2000/svg"><g clip-path="url(#clip0_501_4220)"><path d="M8.5 3.862c.657-1.558 2.159-2.646 3.905-2.646 2.352 0 4.046 2.012 4.26 4.41 0 0 .114.596-.139 1.667-.344 1.46-1.154 2.757-2.246 3.747L8.5 16.197l-5.683-5.158C1.725 10.05.915 8.753.571 7.293.318 6.221.433 5.626.433 5.626c.213-2.398 1.907-4.41 4.26-4.41 1.746 0 3.15 1.088 3.807 2.646z" fill="#E30613"/></g><defs><clipPath id="clip0_501_4220"><path fill="#fff" transform="translate(.407 .564)" d="M0 0h16.284v16.284H0z"/></clipPath></defs></svg>