<svg width="32" height="31" fill="none" xmlns="http://www.w3.org/2000/svg"><g clip-path="url(#clip0_304_215535)"><path d="M25.305 0H7.02A6.365 6.365 0 00.663 6.357v18.286A6.365 6.365 0 007.02 31h18.285a6.365 6.365 0 006.358-6.357V6.357A6.365 6.365 0 0025.305 0zM10.208 23.887a1.515 1.515 0 01-2.068.554 1.515 1.515 0 01-.554-2.068l.298-.516h3.495l-1.171 2.03zm-2.855-3.24a1.515 1.515 0 01-1.514-1.514c0-.835.68-1.514 1.514-1.514h2.978l4.084-7.074-1.107-1.917a1.515 1.515 0 01.554-2.068 1.515 1.515 0 012.068.554l.233.404.233-.404a1.515 1.515 0 012.773.365c.104.391.05.799-.152 1.15l-5.19 8.99H17.1l1.748 3.027H7.353zm17.62 0h-1.23l.996 1.726a1.515 1.515 0 01-1.703 2.219 1.504 1.504 0 01-.919-.705l-5.255-9.104 1.748-3.027 3.385 5.863h2.977c.835 0 1.514.68 1.514 1.514 0 .835-.68 1.514-1.514 1.514z" fill="#fff"/></g><defs><clipPath id="clip0_304_215535"><path fill="#fff" transform="translate(.663)" d="M0 0h31v31H0z"/></clipPath></defs></svg>