<svg width="32" height="31" fill="none" xmlns="http://www.w3.org/2000/svg"><g clip-path="url(#clip0_304_215539)"><path d="M29.687 0H2.642a1.98 1.98 0 00-1.98 1.978v27.044A1.98 1.98 0 002.642 31h27.043a1.978 1.978 0 001.978-1.978V1.978A1.974 1.974 0 0029.687 0zm-3.31 18.89c.567.577 1.796 1.546 1.573 2.533-.205.905-1.557.575-2.87.628-1.498.063-2.386.096-3.288-.628-.424-.344-.674-.75-1.08-1.205-.37-.412-.836-1.149-1.47-1.12-1.14.056-.784 1.645-1.188 2.727-6.335.998-8.88-2.916-11.124-6.713-1.087-1.84-2.658-5.79-2.658-5.79l4.48-.016s1.437 2.614 1.818 3.288c.324.573.68 1.028 1.048 1.54.308.424.796 1.255 1.33 1.188.868-.112 1.026-3.48.488-4.61-.215-.457-.729-.616-1.26-.772.18-1.133 5.025-1.37 5.808-.49 1.137 1.278-.788 4.835.77 5.872 2.187-1.147 4.055-5.946 4.055-5.946l5.246.033s-.82 2.594-1.68 3.745c-.5.674-2.163 2.174-2.098 3.288.053.881 1.405 1.739 2.1 2.448z" fill="#fff"/></g><defs><clipPath id="clip0_304_215539"><path fill="#fff" transform="translate(.663)" d="M0 0h31v31H0z"/></clipPath></defs></svg>