<svg width="37" height="33" fill="none" xmlns="http://www.w3.org/2000/svg"><g clip-path="url(#clip0_304_215532)"><path d="M35.097 21.84c-.783-.862-1.674-1.635-2.535-2.383-.307-.266-.623-.54-.929-.814-.876-.785-.908-1.08-.214-1.973.48-.615.989-1.23 1.481-1.826.447-.54.909-1.1 1.351-1.66l.09-.115c.847-1.073 1.721-2.183 2.187-3.52.12-.354.248-.873-.042-1.308-.29-.434-.853-.566-1.251-.628a3.723 3.723 0 00-.574-.035l-5.54-.004h-.045c-.838 0-1.402.362-1.725 1.106a29.213 29.213 0 01-1.035 2.189c-.77 1.434-1.749 3.085-3.164 4.463l-.06.059c-.167.164-.357.35-.495.35a.257.257 0 01-.07-.01c-.294-.105-.49-.756-.482-1.059a.53.53 0 000-.012l-.003-5.869c0-.02-.002-.04-.005-.06-.14-.955-.453-1.548-1.632-1.76a.53.53 0 00-.096-.009h-5.76c-.938 0-1.455.35-1.94.873-.132.14-.405.431-.27.785.138.358.583.435.729.46.72.125 1.126.53 1.241 1.235.201 1.226.226 2.535.078 4.118-.041.44-.123.78-.257 1.07-.031.068-.142.29-.255.29-.036 0-.14-.013-.328-.133-.447-.28-.774-.68-1.155-1.175-1.297-1.68-2.385-3.53-3.327-5.658-.35-.783-1.002-1.222-1.839-1.235a181.79 181.79 0 00-2.547-.019c-.869 0-1.674.008-2.46.023-.673.01-1.139.195-1.384.55-.245.354-.229.82.048 1.384 2.216 4.516 4.226 7.8 6.516 10.648 1.604 1.992 3.214 3.372 5.064 4.34 1.95 1.023 4.134 1.52 6.68 1.52.287 0 .586-.007.886-.02 1.48-.066 2.028-.556 2.097-1.876.033-.675.114-1.382.475-1.985.229-.38.441-.38.511-.38.135 0 .302.057.482.163.322.193.598.45.824.676.213.214.423.43.634.647.455.467.925.95 1.416 1.407 1.076 1.003 2.26 1.444 3.621 1.349h5.079l.032-.001c.506-.03.944-.288 1.203-.706.32-.518.313-1.179-.018-1.768-.375-.666-.861-1.235-1.288-1.704z" fill="#fff"/></g><defs><clipPath id="clip0_304_215532"><path fill="#fff" transform="translate(.663)" d="M0 0h36v33H0z"/></clipPath></defs></svg>